<svg width="193" height="181" viewBox="0 0 193 181" fill="none" xmlns="http://www.w3.org/2000/svg">
<path d="M62.7906 94.8178C62.7671 89.9619 64.2907 85.2288 67.1451 81.3082C68.5558 79.3762 70.3569 77.7371 71.8993 75.8949C74.7913 72.4325 77.9701 69.1401 80.406 65.3707C89.1243 51.8894 95.5619 37.2462 101.257 22.2676C101.666 21.1906 101.52 19.8443 101.435 18.6398C101.134 14.3366 101.407 10.1231 103.133 6.10802C104.84 2.1449 108.931 -0.240534 113.224 0.0192654C126.104 0.789217 134.86 9.61768 135.815 22.6218C136.426 30.9685 134.366 38.8333 132.119 46.7265C130.492 52.4279 129.189 58.2238 127.83 63.9961C127.543 65.2195 127.656 66.5374 127.576 67.9781C131.395 67.2507 134.94 66.4713 138.519 65.9233C148.935 64.3267 159.374 63.3962 169.818 65.706C174.577 66.7594 179.04 68.5544 182.59 72.0168C188.774 78.0394 190.152 85.3091 187.607 93.4196C187.26 94.5249 187.297 95.3279 187.97 96.3199C193.373 104.251 193.41 113.16 188.021 121.095C187.222 122.276 186.963 123.745 187.335 125.12C189.742 134.033 187.73 141.912 181.4 148.573C180.215 149.82 179.811 150.968 179.886 152.729C180.253 161.005 176.891 167.599 170.298 172.484C163.785 177.306 156.209 179.248 148.342 180.297C146.376 180.556 144.411 180.774 142.441 181.01H129.415C127.031 180.835 124.642 180.5 122.258 180.514C103.575 180.641 84.9956 179.262 66.4679 176.905C64.5823 176.674 63.1621 175.067 63.1527 173.159L62.7812 94.8225L62.7906 94.8178ZM71.1892 167.425C81.2712 168.223 91.358 169.38 101.478 169.739C115.999 170.254 130.543 170.391 145.074 170.282C150.872 170.24 156.548 168.686 161.763 165.88C167.937 162.564 170.749 157.656 169.489 151.161C168.784 147.524 169.771 145.176 172.56 142.918C178.08 138.44 179.693 132.021 176.839 125.828C175.315 122.517 175.771 120.009 178.132 117.331C183.084 111.714 183.117 105.814 178.16 100.207C175.828 97.5669 175.532 95.1815 177.154 92.0781C180.61 85.465 178.231 79.14 171.163 76.7877C167.434 75.5454 163.404 74.9502 159.468 74.6715C148.892 73.9252 138.575 75.9941 128.31 78.2425C123.052 79.3951 118.496 76.6034 117.908 71.2894C117.499 67.6002 117.377 63.6938 118.124 60.0896C119.591 53.0231 121.74 46.103 123.626 39.1262C125.046 33.8735 126.048 28.583 125.615 23.0942C125.051 15.971 121.195 11.5166 114.447 10.3026C112.5 9.95306 111.969 10.2412 111.837 12.2062C111.682 14.5444 111.776 16.8968 111.715 19.2444C111.673 20.8741 111.936 22.6454 111.4 24.105C106.298 37.9736 100.349 51.469 93.032 64.3173C89.2419 70.9682 85.1507 77.4632 79.4561 82.6828C76.1973 85.6681 73.5545 89.3667 72.1485 93.5943C70.6249 98.1715 71.1281 102.72 71.1751 107.444C71.2268 112.687 71.1892 117.93 71.1939 123.174C71.1986 133.655 71.1939 144.142 71.1939 154.624V167.434L71.1892 167.425Z" fill="#1E5FB3"/>
<path d="M38.4848 83.5615H15.8801C7.11008 83.5615 0 90.7037 0 99.5132V160.632C0 169.442 7.11008 176.584 15.8801 176.584H38.4848C47.2548 176.584 54.3649 169.442 54.3649 160.632V99.5132C54.3649 90.7037 47.2548 83.5615 38.4848 83.5615ZM44.1935 160.892C44.1935 163.915 41.753 166.362 38.7434 166.362H15.6074C12.5979 166.362 10.162 163.91 10.162 160.892V99.2487C10.162 96.2256 12.6026 93.7787 15.6074 93.7787H38.7434C41.753 93.7787 44.1935 96.2303 44.1935 99.2487V160.892Z" fill="#1E5FB3"/>
</svg>
