<svg width="193" height="181" viewBox="0 0 193 181" fill="none" xmlns="http://www.w3.org/2000/svg">
<path d="M188.02 121.09C193.404 113.159 193.371 104.245 187.968 96.3145C187.291 95.3226 187.258 94.5195 187.606 93.4142C190.15 85.299 188.772 78.0341 182.589 72.0115C179.038 68.5538 174.576 66.7541 169.817 65.7007C159.373 63.3908 148.933 64.3214 138.517 65.918C134.939 66.4659 131.393 67.25 127.575 67.9728C127.655 66.5321 127.542 65.2142 127.829 63.9907C129.183 58.2137 130.49 52.4226 132.117 46.7212C134.37 38.828 136.429 30.9631 135.813 22.6165C134.859 9.61705 126.108 0.788586 113.223 0.0186347C108.93 -0.236441 104.838 2.14427 103.131 6.10739C101.406 10.1178 101.133 14.336 101.434 18.6392C101.519 19.8437 101.664 21.1899 101.255 22.2669C95.5605 37.2456 89.1229 51.8841 80.4046 65.37C77.9687 69.1395 74.7899 72.4271 71.8979 75.8943C70.3602 77.7365 68.5544 79.3756 67.1437 81.3076C64.294 85.2282 62.7704 89.9613 62.7892 94.8171L63.1607 173.154C63.1701 175.062 64.5903 176.668 66.4759 176.9C84.9989 179.252 103.578 180.636 122.266 180.508C124.65 180.494 127.039 180.83 129.423 181.004H142.449C144.414 180.768 146.384 180.556 148.35 180.291C156.217 179.243 163.793 177.301 170.306 172.478C176.899 167.599 180.261 161 179.894 152.724C179.814 150.962 180.219 149.814 181.408 148.567C187.738 141.907 189.746 134.028 187.343 125.114C186.971 123.735 187.23 122.266 188.029 121.09H188.02Z" fill="#1E5FB3"/>
<path d="M15.8801 83.5605H38.4848C47.2501 83.5605 54.3649 90.7074 54.3649 99.5122V160.631C54.3649 169.436 47.2501 176.583 38.4848 176.583H15.8801C7.11479 176.583 0 169.436 0 160.631V99.5122C0 90.7074 7.11479 83.5605 15.8801 83.5605Z" fill="#1E5FB3"/>
</svg>
